<svg width="261" height="29" viewBox="0 0 261 29" fill="none" xmlns="http://www.w3.org/2000/svg">
<path d="M252.422 9.98352V14.2103H251.587V9.98352H250.088V9.21111H253.92V9.98352H252.422Z" fill="white"/>
<path d="M255.656 14.2103H254.822V9.21111H256.123L257.614 12.3508L259.106 9.21111H260.4V14.2103H259.566V10.3054L257.841 13.7741H257.374L255.656 10.3054V14.2103Z" fill="white"/>
<path d="M136.85 27.9278H132.891V8.90358H136.85V27.9278Z" fill="white"/>
<path d="M133.139 5.11303C132.644 4.61239 132.396 4.01639 132.396 3.32503C132.396 2.63368 132.644 2.03768 133.139 1.53704C133.634 1.0364 134.223 0.786079 134.906 0.786079C135.59 0.786079 136.179 1.0364 136.674 1.53704C137.169 2.03768 137.416 2.63368 137.416 3.32503C137.416 4.01639 137.169 4.61239 136.674 5.11303C136.179 5.61367 135.59 5.86399 134.906 5.86399C134.223 5.86399 133.634 5.61367 133.139 5.11303Z" fill="white"/>
<path d="M124.125 8.90358V7.33014C124.125 6.42422 124.36 5.70903 124.832 5.18455C125.303 4.63623 125.963 4.36207 126.811 4.36207C127.66 4.36207 128.473 4.77927 129.25 5.61367L130.876 2.78864C129.486 1.52512 127.942 0.89336 126.246 0.89336C124.572 0.89336 123.135 1.48936 121.933 2.68135C120.755 3.84951 120.165 5.43487 120.165 7.43742V8.90358H117.797V12.122H120.165V27.9278H124.125V12.122H129.074V8.90358H124.125Z" fill="white"/>
<path d="M43.1605 27.9278H47.1196V1.394H43.1605V27.9278Z" fill="white"/>
<path d="M28.2643 17.9723H34.0686V22.6354C32.4897 23.6605 30.5219 24.1731 28.1653 24.1731C25.8322 24.1731 23.8409 23.3744 22.1912 21.7771C21.4392 21.0381 20.8585 20.1925 20.4494 19.2404L16.7382 21.4304C17.3211 22.5735 18.0901 23.6188 19.0451 24.5664C21.5196 26.9981 24.5832 28.2139 28.236 28.2139C32.5722 28.2139 35.9068 26.9146 38.2398 24.3161V17.9723H38.2469L38.2752 13.3378H28.2643V17.9723Z" fill="white"/>
<path d="M16.5116 9.746C17.1293 8.38733 17.9973 7.15292 19.1158 6.04278C21.6374 3.56343 24.6775 2.32376 28.236 2.32376C31.7945 2.32376 34.752 3.37271 37.1087 5.47063L34.8817 8.68902C33.9154 7.85462 32.9374 7.28246 31.9477 6.97254C30.9814 6.63878 29.8503 6.4719 28.5541 6.4719C26.0561 6.4719 23.9587 7.29438 22.2619 8.93934C21.3604 9.80063 20.6984 10.81 20.2759 11.9674L16.5116 9.746Z" fill="white"/>
<path fill-rule="evenodd" clip-rule="evenodd" d="M68.11 27.9278H64.5044V25.3889C62.949 27.2722 60.8634 28.2139 58.2476 28.2139C56.2916 28.2139 54.6655 27.6537 53.3694 26.5332C52.0968 25.4127 51.4605 23.9227 51.4605 22.0632C51.4605 20.1799 52.1439 18.7733 53.5108 17.8436C54.8776 16.9138 56.7276 16.4489 59.0606 16.4489H64.1863V15.7337C64.1863 13.2067 62.7959 11.9432 60.015 11.9432C58.2711 11.9432 56.4565 12.5868 54.5712 13.8742L52.8038 11.371C55.0897 9.53534 57.682 8.6175 60.5806 8.6175C62.7959 8.6175 64.5987 9.18966 65.9891 10.334C67.4031 11.4544 68.11 13.2305 68.11 15.6622V27.9278ZM64.1509 20.8474V19.2382H59.6969C56.8454 19.2382 55.4196 20.1441 55.4196 21.9559C55.4196 22.8857 55.7731 23.6009 56.4801 24.1015C57.1871 24.5783 58.1651 24.8167 59.4141 24.8167C60.6867 24.8167 61.7943 24.4591 62.7369 23.7439C63.6796 23.0287 64.1509 22.0632 64.1509 20.8474Z" fill="white"/>
<path fill-rule="evenodd" clip-rule="evenodd" d="M75.0809 25.4962C76.8484 27.308 78.9222 28.2139 81.3024 28.2139C84.1068 28.2139 86.2395 27.165 87.7007 25.0671V27.9278H91.6598V1.394H87.7007V11.8359C86.1688 9.6903 84.1422 8.6175 81.6206 8.6175C79.1226 8.6175 76.9662 9.49958 75.1516 11.2637C73.337 13.0279 72.4297 15.388 72.4297 18.3442C72.4297 21.3003 73.3135 23.6843 75.0809 25.4962ZM78.121 22.9572C76.9662 21.8129 76.3889 20.3348 76.3889 18.523C76.3889 16.6873 76.9544 15.1616 78.0856 13.9457C79.2168 12.7299 80.5719 12.122 82.1508 12.122C83.7297 12.122 85.0612 12.7299 86.1453 13.9457C87.2293 15.1616 87.7714 16.6754 87.7714 18.4872C87.7714 20.2991 87.2293 21.7891 86.1453 22.9572C85.0612 24.1015 83.7415 24.6737 82.1862 24.6737C80.6308 24.6737 79.2757 24.1015 78.121 22.9572Z" fill="white"/>
<path fill-rule="evenodd" clip-rule="evenodd" d="M114.884 20.1679H100.144C100.238 21.5507 100.862 22.6711 102.017 23.5294C103.172 24.3638 104.492 24.781 105.976 24.781C108.333 24.781 110.124 24.03 111.349 22.5281L113.612 25.0313C111.585 27.153 108.946 28.2139 105.693 28.2139C103.054 28.2139 100.803 27.3318 98.9417 25.5677C97.1036 23.7797 96.1845 21.3957 96.1845 18.4157C96.1845 15.4119 97.1271 13.0279 99.0124 11.2637C100.898 9.49958 103.113 8.6175 105.658 8.6175C108.227 8.6175 110.407 9.40421 112.198 10.9777C113.989 12.5272 114.884 14.6728 114.884 17.4144V20.1679ZM100.144 17.0211H110.925C110.925 15.4238 110.43 14.196 109.44 13.3378C108.451 12.4796 107.225 12.0504 105.764 12.0504C104.327 12.0504 103.03 12.5034 101.876 13.4093C100.721 14.2914 100.144 15.4953 100.144 17.0211Z" fill="white"/>
<path d="M146.564 27.9278V17.629C146.564 15.8648 147.071 14.5298 148.084 13.6239C149.098 12.6941 150.288 12.2292 151.655 12.2292C154.53 12.2292 155.967 13.9815 155.967 17.486V27.9278H159.926V16.2701C159.926 13.7908 159.267 11.8955 157.947 10.5843C156.651 9.2731 154.942 8.6175 152.821 8.6175C151.525 8.6175 150.311 8.95126 149.18 9.61878C148.073 10.2863 147.201 11.2041 146.564 12.3723V8.90358H142.605V27.9278H146.564Z" fill="white"/>
<path fill-rule="evenodd" clip-rule="evenodd" d="M180.705 27.9278H177.099V25.3889C175.544 27.2722 173.458 28.2139 170.842 28.2139C168.886 28.2139 167.26 27.6537 165.964 26.5332C164.692 25.4127 164.055 23.9227 164.055 22.0632C164.055 20.1799 164.739 18.7733 166.106 17.8436C167.472 16.9138 169.322 16.4489 171.655 16.4489H176.781V15.7337C176.781 13.2067 175.391 11.9432 172.61 11.9432C170.866 11.9432 169.051 12.5868 167.166 13.8742L165.399 11.371C167.684 9.53534 170.277 8.6175 173.175 8.6175C175.391 8.6175 177.193 9.18966 178.584 10.334C179.998 11.4544 180.705 13.2305 180.705 15.6622V27.9278ZM176.746 20.8474V19.2382H172.292C169.44 19.2382 168.014 20.1441 168.014 21.9559C168.014 22.8857 168.368 23.6009 169.075 24.1015C169.782 24.5783 170.76 24.8167 172.009 24.8167C173.281 24.8167 174.389 24.4591 175.332 23.7439C176.274 23.0287 176.746 22.0632 176.746 20.8474Z" fill="white"/>
<path d="M190.186 27.9278V17.629C190.186 15.8648 190.692 14.5298 191.706 13.6239C192.719 12.6941 193.909 12.2292 195.276 12.2292C198.151 12.2292 199.588 13.9815 199.588 17.486V27.9278H203.548V16.2701C203.548 13.7908 202.888 11.8955 201.568 10.5843C200.272 9.2731 198.563 8.6175 196.442 8.6175C195.146 8.6175 193.933 8.95126 192.801 9.61878C191.694 10.2863 190.822 11.2041 190.186 12.3723V8.90358H186.226V27.9278H190.186Z" fill="white"/>
<path d="M217.433 28.2139C214.817 28.2139 212.566 27.3199 210.681 25.5319C208.796 23.7201 207.853 21.3599 207.853 18.4515C207.853 15.543 208.831 13.1828 210.787 11.371C212.767 9.53534 215.17 8.6175 217.998 8.6175C220.826 8.6175 223.218 9.60686 225.174 11.5856L222.841 14.4821C221.215 13.0517 219.577 12.3365 217.928 12.3365C216.278 12.3365 214.84 12.8968 213.615 14.0172C212.413 15.1139 211.812 16.5443 211.812 18.3084C211.812 20.0487 212.413 21.5268 213.615 22.7427C214.817 23.9585 216.29 24.5664 218.034 24.5664C219.801 24.5664 221.463 23.7559 223.018 22.1347L225.351 24.7095C223.065 27.0458 220.426 28.2139 217.433 28.2139Z" fill="white"/>
<path fill-rule="evenodd" clip-rule="evenodd" d="M232.223 20.1679H246.964V17.4144C246.964 14.6728 246.068 12.5272 244.277 10.9777C242.486 9.40421 240.306 8.6175 237.737 8.6175C235.192 8.6175 232.977 9.49958 231.092 11.2637C229.206 13.0279 228.264 15.4119 228.264 18.4157C228.264 21.3957 229.183 23.7797 231.021 25.5677C232.883 27.3318 235.133 28.2139 237.773 28.2139C241.025 28.2139 243.664 27.153 245.691 25.0313L243.429 22.5281C242.203 24.03 240.412 24.781 238.056 24.781C236.571 24.781 235.251 24.3638 234.096 23.5294C232.942 22.6711 232.317 21.5507 232.223 20.1679ZM243.005 17.0211H232.223C232.223 15.4953 232.8 14.2914 233.955 13.4093C235.11 12.5034 236.406 12.0504 237.843 12.0504C239.305 12.0504 240.53 12.4796 241.52 13.3378C242.51 14.196 243.005 15.4238 243.005 17.0211Z" fill="white"/>
<path fill-rule="evenodd" clip-rule="evenodd" d="M132.608 28.2139V8.6175H137.133V28.2139H132.608ZM124.832 5.18455C124.36 5.70903 124.125 6.42422 124.125 7.33014V8.90358H129.074V12.122H124.125V27.9278H120.165V12.122H117.797V8.90358H120.165V7.43742C120.165 5.43487 120.755 3.84951 121.933 2.68135C123.135 1.48936 124.572 0.89336 126.246 0.89336C127.942 0.89336 129.486 1.52512 130.876 2.78864L129.25 5.61367C129.182 5.54026 129.113 5.47009 129.044 5.40314C128.329 4.70909 127.585 4.36207 126.811 4.36207C125.963 4.36207 125.303 4.63623 124.832 5.18455ZM119.883 8.6175H117.514V12.408H119.883V28.2139H124.407V12.408H129.356V8.6175H124.407V7.33014C124.407 6.47494 124.629 5.83541 125.041 5.37699L125.043 5.37465L125.045 5.37227C125.453 4.89789 126.028 4.64815 126.811 4.64815C127.558 4.64815 128.302 5.01277 129.045 5.80992L129.304 6.08853L131.237 2.7314L131.065 2.57581C129.629 1.27031 128.019 0.60728 126.246 0.60728C124.498 0.60728 122.989 1.233 121.735 2.47707C120.492 3.70958 119.883 5.37452 119.883 7.43742V8.6175ZM47.4024 28.2139H42.8777V1.10792H47.4024V28.2139ZM20.5673 19.5019C20.9675 20.3481 21.5088 21.1065 22.1912 21.7771C23.8409 23.3744 25.8322 24.1731 28.1653 24.1731C30.5219 24.1731 32.4897 23.6605 34.0686 22.6354V17.9723H28.2643V13.3378H38.2752L38.2469 17.9723H38.2398V24.3161C35.9068 26.9146 32.5722 28.2139 28.236 28.2139C24.5832 28.2139 21.5196 26.9981 19.0451 24.5664C18.0901 23.6188 17.3211 22.5735 16.7382 21.4304L20.4494 19.2404C20.4872 19.3285 20.5265 19.4157 20.5673 19.5019ZM38.5226 18.2584V24.4266L38.4492 24.5084C36.0497 27.181 32.6305 28.5 28.236 28.5C24.5144 28.5 21.3787 27.2584 18.8481 24.7716L18.8471 24.7707C17.8717 23.8028 17.0843 22.7331 16.4868 21.5615L16.3637 21.3201L20.5818 18.831L20.7087 19.1263C21.1027 20.0432 21.6617 20.8577 22.3875 21.5712C23.9831 23.1158 25.9037 23.887 28.1653 23.887C30.4161 23.887 32.2845 23.4115 33.7858 22.4773V18.2584H27.9815V13.0517H38.5597L38.528 18.2584H38.5226ZM16.1474 9.86231L16.2546 9.62647C16.8875 8.23432 17.7762 6.97161 18.9178 5.83858L18.9187 5.83764C21.4938 3.3057 24.6049 2.03768 28.236 2.03768C31.8534 2.03768 34.8803 3.10583 37.2955 5.25586L37.4855 5.42497L34.9348 9.11106L34.698 8.9066C33.7546 8.09189 32.8098 7.54196 31.864 7.24583L31.8601 7.24461L31.8563 7.24327C30.9262 6.92199 29.8272 6.75798 28.5541 6.75798C26.124 6.75798 24.0982 7.5554 22.4576 9.14588L22.4569 9.14661L22.4561 9.14732C21.5857 9.97887 20.9484 10.9511 20.5412 12.0665L20.4245 12.3862L16.1474 9.86231ZM64.2216 28.2139V26.1282C62.6697 27.711 60.671 28.5 58.2476 28.5C56.2347 28.5 54.5405 27.9219 53.1856 26.7507L53.1847 26.7498L53.1837 26.749C51.8435 25.5689 51.1777 23.9971 51.1777 22.0632C51.1777 20.0991 51.8968 18.5967 53.353 17.6062C54.7821 16.634 56.6938 16.1628 59.0606 16.1628H63.9035V15.7337C63.9035 14.5227 63.5717 13.6645 62.9545 13.1036C62.3315 12.5375 61.3689 12.2292 60.015 12.2292C58.3424 12.2292 56.5821 12.8463 54.7295 14.1113L54.5012 14.2672L52.4174 11.316L52.6279 11.1469C54.9635 9.27141 57.6177 8.33142 60.5806 8.33142C62.844 8.33142 64.714 8.91663 66.1656 10.1104C67.6681 11.3022 68.3928 13.1757 68.3928 15.6622V28.2139H64.2216ZM65.9891 10.334C64.5987 9.18966 62.7959 8.6175 60.5806 8.6175C57.682 8.6175 55.0897 9.53534 52.8038 11.371L54.5712 13.8742C56.4565 12.5868 58.2711 11.9432 60.015 11.9432C62.7959 11.9432 64.1863 13.2067 64.1863 15.7337V16.4489H59.0606C56.7276 16.4489 54.8776 16.9138 53.5108 17.8436C52.1439 18.7733 51.4605 20.1799 51.4605 22.0632C51.4605 23.9227 52.0968 25.4127 53.3694 26.5332C54.6655 27.6537 56.2916 28.2139 58.2476 28.2139C60.708 28.2139 62.6994 27.3808 64.2216 25.7146C64.3177 25.6093 64.412 25.5008 64.5044 25.3889V27.9278H68.11V15.6622C68.11 13.2305 67.4031 11.4544 65.9891 10.334ZM87.4179 28.2139V25.897C85.9263 27.6352 83.8777 28.5 81.3024 28.5C78.8419 28.5 76.6969 27.56 74.8797 25.6971C73.0515 23.8231 72.1469 21.3625 72.1469 18.3442C72.1469 15.3238 73.0766 12.8843 74.9557 11.0575C76.8225 9.24253 79.0489 8.33142 81.6206 8.33142C83.9642 8.33142 85.9019 9.23028 87.4179 11.011V1.10792H91.9426V28.2139H87.4179ZM87.7007 1.394H91.6598V27.9278H87.7007V25.0671C87.609 25.1986 87.5148 25.326 87.4179 25.4493C85.9694 27.2924 83.931 28.2139 81.3024 28.2139C78.9222 28.2139 76.8484 27.308 75.0809 25.4962C73.3135 23.6843 72.4297 21.3003 72.4297 18.3442C72.4297 15.388 73.337 13.0279 75.1516 11.2637C76.9662 9.49958 79.1226 8.6175 81.6206 8.6175C83.9899 8.6175 85.9224 9.56469 87.4179 11.4591C87.5139 11.5808 87.6082 11.7064 87.7007 11.8359V1.394ZM113.612 25.0313C111.585 27.153 108.946 28.2139 105.693 28.2139C103.054 28.2139 100.803 27.3318 98.9417 25.5677C97.1036 23.7797 96.1845 21.3957 96.1845 18.4157C96.1845 15.4119 97.1271 13.0279 99.0124 11.2637C100.898 9.49958 103.113 8.6175 105.658 8.6175C108.227 8.6175 110.407 9.40421 112.198 10.9777C113.989 12.5272 114.884 14.6728 114.884 17.4144V20.1679H100.144C100.15 20.2646 100.159 20.3599 100.171 20.454C100.328 21.706 100.943 22.7311 102.017 23.5294C103.172 24.3638 104.492 24.781 105.976 24.781C108.216 24.781 109.945 24.1026 111.163 22.7459C111.227 22.6751 111.289 22.6025 111.349 22.5281L113.612 25.0313ZM102.183 23.2976C103.287 24.095 104.548 24.4949 105.976 24.4949C108.269 24.4949 109.972 23.7674 111.131 22.346L111.338 22.0921L114 25.0367L113.815 25.2301C111.729 27.4143 109.013 28.5 105.693 28.5C102.985 28.5 100.665 27.5922 98.7484 25.7765L98.7471 25.7752L98.7457 25.7739C96.8434 23.9235 95.9017 21.4604 95.9017 18.4157C95.9017 15.3458 96.868 12.8806 98.8204 11.0537C100.757 9.24115 103.041 8.33142 105.658 8.33142C108.288 8.33142 110.535 9.13885 112.382 10.7608C114.245 12.3732 115.167 14.6035 115.167 17.4144V20.454H100.456C100.61 21.6077 101.18 22.5516 102.183 23.2976ZM102.048 13.6365L102.046 13.6376C101.038 14.4075 100.501 15.4317 100.434 16.735H110.637C110.581 15.3452 110.113 14.2974 109.256 13.555C108.324 12.7466 107.166 12.3365 105.764 12.3365C104.39 12.3365 103.155 12.7677 102.049 13.6354L102.048 13.6365ZM110.92 16.735C110.863 15.2765 110.37 14.1441 109.44 13.3378C108.451 12.4796 107.225 12.0504 105.764 12.0504C104.327 12.0504 103.03 12.5034 101.876 13.4093C100.794 14.2355 100.219 15.3441 100.151 16.735C100.146 16.8291 100.144 16.9244 100.144 17.0211H110.925C110.925 16.9244 110.923 16.829 110.92 16.735ZM146.847 28.2139H142.322V8.6175H146.847V11.3886C147.437 10.5694 148.166 9.8968 149.035 9.373L149.037 9.37233L149.038 9.37167C150.212 8.6789 151.474 8.33142 152.821 8.33142C155.004 8.33142 156.788 9.00838 158.146 10.3811C159.535 11.7618 160.209 13.7405 160.209 16.2701V28.2139H155.685V17.486C155.685 15.7662 155.331 14.5296 154.672 13.7261C154.021 12.9329 153.033 12.5153 151.655 12.5153C150.358 12.5153 149.236 12.9537 148.274 13.8358L148.273 13.837L148.272 13.8383C147.336 14.6751 146.847 15.9215 146.847 17.629V28.2139ZM157.947 10.5843C156.651 9.2731 154.942 8.6175 152.821 8.6175C151.525 8.6175 150.311 8.95126 149.18 9.61878C148.229 10.1923 147.451 10.9506 146.847 11.8937C146.748 12.0483 146.654 12.2078 146.564 12.3723V8.90358H142.605V27.9278H146.564V17.629C146.564 15.8648 147.071 14.5298 148.084 13.6239C149.098 12.6941 150.288 12.2292 151.655 12.2292C154.53 12.2292 155.967 13.9815 155.967 17.486V27.9278H159.926V16.2701C159.926 13.7908 159.267 11.8955 157.947 10.5843ZM176.816 28.2139V26.1282C175.264 27.711 173.266 28.5 170.842 28.5C168.829 28.5 167.135 27.9219 165.78 26.7507L165.779 26.7498L165.778 26.749C164.438 25.5689 163.772 23.9971 163.772 22.0632C163.772 20.0991 164.492 18.5967 165.948 17.6061C167.377 16.634 169.289 16.1628 171.655 16.1628H176.498V15.7337C176.498 14.5227 176.166 13.6645 175.549 13.1036C174.926 12.5375 173.964 12.2292 172.61 12.2292C170.937 12.2292 169.177 12.8463 167.324 14.1113L167.096 14.2672L165.012 11.316L165.223 11.1469C167.558 9.27141 170.212 8.33142 173.175 8.33142C175.439 8.33142 177.309 8.91669 178.761 10.1106C180.263 11.3024 180.988 13.1758 180.988 15.6622V28.2139H176.816ZM178.584 10.334C177.193 9.18966 175.391 8.6175 173.175 8.6175C170.277 8.6175 167.684 9.53534 165.399 11.371L167.166 13.8742C169.051 12.5868 170.866 11.9432 172.61 11.9432C175.391 11.9432 176.781 13.2067 176.781 15.7337V16.4489H171.655C169.322 16.4489 167.472 16.9138 166.106 17.8436C164.739 18.7733 164.055 20.1799 164.055 22.0632C164.055 23.9227 164.692 25.4127 165.964 26.5332C167.26 27.6537 168.886 28.2139 170.842 28.2139C173.303 28.2139 175.294 27.3808 176.816 25.7146C176.912 25.6093 177.007 25.5008 177.099 25.3889V27.9278H180.705V15.6622C180.705 13.2305 179.998 11.4544 178.584 10.334ZM190.468 28.2139H185.944V8.6175H190.468V11.3886C191.058 10.5694 191.787 9.8968 192.657 9.373L192.658 9.37233L192.659 9.37167C193.833 8.6789 195.096 8.33142 196.442 8.33142C198.625 8.33142 200.41 9.00838 201.767 10.3811C203.156 11.7618 203.83 13.7405 203.83 16.2701V28.2139H199.306V17.486C199.306 15.7662 198.952 14.5296 198.293 13.7261C197.642 12.9329 196.654 12.5153 195.276 12.5153C193.979 12.5153 192.857 12.9537 191.895 13.8358L191.894 13.837L191.893 13.8383C190.957 14.6751 190.468 15.9215 190.468 17.629V28.2139ZM201.568 10.5843C200.272 9.2731 198.563 8.6175 196.442 8.6175C195.146 8.6175 193.933 8.95126 192.801 9.61878C191.85 10.1923 191.072 10.9506 190.468 11.8937C190.369 12.0483 190.275 12.2078 190.186 12.3723V8.90358H186.226V27.9278H190.186V17.629C190.186 15.8648 190.692 14.5298 191.706 13.6239C192.719 12.6941 193.909 12.2292 195.276 12.2292C198.151 12.2292 199.588 13.9815 199.588 17.486V27.9278H203.548V16.2701C203.548 13.7908 202.888 11.8955 201.568 10.5843ZM210.487 25.74L210.486 25.7393C208.539 23.8675 207.57 21.4292 207.57 18.4515C207.57 15.4703 208.576 13.0309 210.596 11.16C212.631 9.2733 215.104 8.33142 217.998 8.33142C220.899 8.33142 223.364 9.34959 225.374 11.3833L225.555 11.566L222.876 14.8918L222.656 14.698C221.065 13.2987 219.49 12.6226 217.928 12.6226C216.348 12.6226 214.978 13.1565 213.805 14.2295C212.667 15.2673 212.095 16.6182 212.095 18.3084C212.095 19.9739 212.667 21.3789 213.815 22.5404C214.962 23.701 216.363 24.2803 218.034 24.2803C219.706 24.2803 221.298 23.5166 222.815 21.9355L223.024 21.7179L225.741 24.717L225.552 24.9107C223.218 27.2962 220.508 28.5 217.433 28.5C214.746 28.5 212.426 27.579 210.488 25.7406L210.487 25.74ZM210.787 11.371C208.831 13.1828 207.853 15.543 207.853 18.4515C207.853 21.3599 208.796 23.7201 210.681 25.5319C212.566 27.3199 214.817 28.2139 217.433 28.2139C220.426 28.2139 223.065 27.0458 225.351 24.7095L223.018 22.1347C222.952 22.2039 222.885 22.2716 222.818 22.3378C221.321 23.8235 219.726 24.5664 218.034 24.5664C216.29 24.5664 214.817 23.9585 213.615 22.7427C212.413 21.5268 211.812 20.0487 211.812 18.3084C211.812 16.5443 212.413 15.1139 213.615 14.0172C214.84 12.8968 216.278 12.3365 217.928 12.3365C219.504 12.3365 221.07 12.9899 222.626 14.2968C222.698 14.3572 222.769 14.4189 222.841 14.4821L225.174 11.5856C223.218 9.60686 220.826 8.6175 217.998 8.6175C215.17 8.6175 212.767 9.53534 210.787 11.371ZM247.246 20.454H232.536C232.689 21.6078 233.259 22.5517 234.262 23.2977C235.366 24.095 236.628 24.4949 238.056 24.4949C240.349 24.4949 242.051 23.7674 243.211 22.346L243.418 22.0921L246.079 25.0367L245.894 25.2301C243.808 27.4143 241.092 28.5 237.773 28.5C235.064 28.5 232.744 27.5922 230.828 25.7765L230.826 25.7752L230.825 25.7739C228.923 23.9235 227.981 21.4604 227.981 18.4157C227.981 15.3458 228.947 12.8806 230.9 11.0537C232.837 9.24115 235.12 8.33142 237.737 8.33142C240.368 8.33142 242.615 9.13888 244.462 10.7609C246.325 12.3733 247.246 14.6036 247.246 17.4144V20.454ZM244.277 10.9777C242.486 9.40421 240.306 8.6175 237.737 8.6175C235.192 8.6175 232.977 9.49958 231.092 11.2637C229.206 13.0279 228.264 15.4119 228.264 18.4157C228.264 21.3957 229.183 23.7797 231.021 25.5677C232.883 27.3318 235.133 28.2139 237.773 28.2139C241.025 28.2139 243.664 27.153 245.691 25.0313L243.429 22.5281C243.368 22.6025 243.306 22.6751 243.242 22.7459C242.024 24.1026 240.295 24.781 238.056 24.781C236.571 24.781 235.251 24.3638 234.096 23.5294C233.022 22.7311 232.407 21.706 232.25 20.454C232.239 20.3599 232.23 20.2646 232.223 20.1679H246.964V17.4144C246.964 14.6728 246.068 12.5272 244.277 10.9777ZM233.955 13.4093C232.873 14.2355 232.298 15.3441 232.23 16.735C232.225 16.8291 232.223 16.9244 232.223 17.0211H243.005C243.005 16.9244 243.003 16.829 242.999 16.735C242.943 15.2765 242.45 14.1441 241.52 13.3378C240.53 12.4796 239.305 12.0504 237.843 12.0504C236.406 12.0504 235.11 12.5034 233.955 13.4093ZM242.716 16.735C242.66 15.3452 242.192 14.2974 241.336 13.555C240.404 12.7466 239.246 12.3365 237.843 12.3365C236.47 12.3365 235.234 12.7677 234.128 13.6354L234.127 13.6365L234.125 13.6376C233.118 14.4075 232.581 15.4317 232.513 16.735H242.716ZM136.85 8.90358H132.891V27.9278H136.85V8.90358ZM132.939 5.31532C132.392 4.76248 132.114 4.09429 132.114 3.32503C132.114 2.55578 132.392 1.88759 132.939 1.33475C133.485 0.781908 134.146 0.5 134.906 0.5C135.667 0.5 136.327 0.781907 136.874 1.33475C137.42 1.88759 137.699 2.55578 137.699 3.32503C137.699 4.09429 137.42 4.76248 136.874 5.31532C136.327 5.86816 135.667 6.15006 134.906 6.15006C134.146 6.15006 133.485 5.86816 132.939 5.31532ZM16.5116 9.746L20.2759 11.9674C20.3091 11.8765 20.3437 11.7866 20.3799 11.6975C20.8039 10.6524 21.4312 9.73301 22.2619 8.93934C23.9587 7.29438 26.0561 6.4719 28.5541 6.4719C29.8503 6.4719 30.9814 6.63878 31.9477 6.97254C32.863 7.25917 33.7683 7.77009 34.6636 8.50531C34.7363 8.56506 34.809 8.6263 34.8817 8.68902L37.1087 5.47063C34.752 3.37271 31.7945 2.32376 28.236 2.32376C24.6775 2.32376 21.6374 3.56343 19.1158 6.04278C17.9973 7.15292 17.1293 8.38733 16.5116 9.746ZM63.8681 20.8474V19.5243H59.6969C58.2916 19.5243 57.2858 19.7492 56.6394 20.1599C56.015 20.5566 55.7024 21.1409 55.7024 21.9559C55.7024 22.7983 56.0156 23.4223 56.6397 23.8653C57.283 24.2981 58.1978 24.5307 59.4141 24.5307C60.6307 24.5307 61.6776 24.1901 62.5673 23.5151C63.437 22.8552 63.8681 21.9753 63.8681 20.8474ZM56.4801 24.1015C57.1871 24.5783 58.1651 24.8167 59.4141 24.8167C60.6867 24.8167 61.7943 24.4591 62.7369 23.7439C63.6796 23.0287 64.1509 22.0632 64.1509 20.8474V19.2382H59.6969C56.8454 19.2382 55.4196 20.1441 55.4196 21.9559C55.4196 22.8857 55.7731 23.6009 56.4801 24.1015ZM76.6717 18.523C76.6717 20.2671 77.2246 21.6684 78.3189 22.7529C79.4231 23.8471 80.7079 24.3876 82.1862 24.3876C83.6634 24.3876 84.9092 23.8481 85.9402 22.7603C86.9678 21.6524 87.4886 20.236 87.4886 18.4872C87.4886 16.738 86.9673 15.2949 85.9353 14.1373C84.9033 12.9799 83.6474 12.408 82.1508 12.408C80.6537 12.408 79.372 12.9805 78.2916 14.1418C77.2148 15.2991 76.6717 16.7523 76.6717 18.523ZM86.1453 22.9572C87.2293 21.7891 87.7714 20.2991 87.7714 18.4872C87.7714 16.6754 87.2293 15.1616 86.1453 13.9457C85.0612 12.7299 83.7297 12.122 82.1508 12.122C80.5719 12.122 79.2168 12.7299 78.0856 13.9457C76.9544 15.1616 76.3889 16.6873 76.3889 18.523C76.3889 20.3348 76.9662 21.8129 78.121 22.9572C79.2757 24.1015 80.6308 24.6737 82.1862 24.6737C83.7415 24.6737 85.0612 24.1015 86.1453 22.9572ZM176.463 20.8474V19.5243H172.292C170.886 19.5243 169.88 19.7492 169.234 20.1599C168.61 20.5566 168.297 21.1409 168.297 21.9559C168.297 22.7984 168.61 23.4224 169.235 23.8654C169.878 24.2982 170.793 24.5307 172.009 24.5307C173.225 24.5307 174.272 24.1901 175.162 23.5151C176.032 22.8552 176.463 21.9753 176.463 20.8474ZM169.075 24.1015C168.368 23.6009 168.014 22.8857 168.014 21.9559C168.014 20.1441 169.44 19.2382 172.292 19.2382H176.746V20.8474C176.746 22.0632 176.274 23.0287 175.332 23.7439C174.389 24.4591 173.281 24.8167 172.009 24.8167C170.76 24.8167 169.782 24.5783 169.075 24.1015ZM132.396 3.32503C132.396 4.01639 132.644 4.61239 133.139 5.11303C133.634 5.61367 134.223 5.86399 134.906 5.86399C135.59 5.86399 136.179 5.61367 136.674 5.11303C137.169 4.61239 137.416 4.01639 137.416 3.32503C137.416 2.63368 137.169 2.03768 136.674 1.53704C136.179 1.0364 135.59 0.786079 134.906 0.786079C134.223 0.786079 133.634 1.0364 133.139 1.53704C132.644 2.03768 132.396 2.63368 132.396 3.32503ZM43.1605 27.9278V1.394H47.1196V27.9278H43.1605Z" fill="white"/>
<path d="M14.3604 9.64023C17.7948 11.6621 21.1556 13.6405 24.5879 15.6612C21.1737 17.6719 17.8099 19.6527 14.3604 21.6842C14.3604 21.2951 14.3481 20.9752 14.3637 20.6573C14.3805 20.3225 14.2645 20.1624 13.9124 20.1872C13.618 20.2055 13.3227 20.2051 13.0283 20.186C12.5655 20.1596 12.13 19.9553 11.811 19.6148C11.4919 19.2744 11.3134 18.8235 11.3118 18.3543C11.3116 17.8852 11.4882 17.4337 11.8056 17.0918C12.1229 16.75 12.5572 16.5435 13.0198 16.5145C13.3136 16.4966 13.6096 16.4999 13.9038 16.5107C14.1383 16.5199 14.285 16.4634 14.2736 16.1868C14.2613 15.8888 14.1145 15.8037 13.8309 15.8055C12.3238 15.8168 10.8167 15.823 9.30985 15.8064C8.01961 15.7924 7.16271 14.5633 7.57912 13.3596C7.83403 12.6217 8.49911 12.1363 9.3108 12.1306C10.7359 12.1206 12.1614 12.1289 13.5866 12.1268C14.291 12.1256 14.3604 12.0509 14.3604 11.332V9.64023Z" fill="#FF6F00"/>
<path d="M6.91722 19.3944C6.34504 19.3944 5.77244 19.4065 5.20069 19.3915C4.31534 19.3687 3.64459 18.6797 3.63991 17.8113C3.63729 17.6037 3.67522 17.3977 3.75151 17.2051C3.82781 17.0125 3.94097 16.837 4.08449 16.6888C4.22801 16.5405 4.39906 16.4225 4.58781 16.3414C4.77656 16.2603 4.97929 16.2177 5.18434 16.2162C6.34467 16.1967 7.50543 16.1963 8.66661 16.215C8.87161 16.2146 9.07467 16.2552 9.26415 16.3344C9.45363 16.4136 9.6258 16.5298 9.7708 16.6765C9.91579 16.8232 10.0308 16.9974 10.1091 17.1891C10.1874 17.3809 10.2276 17.5864 10.2273 17.7939C10.2314 18.6824 9.54859 19.3741 8.63418 19.3922C8.062 19.4038 7.48977 19.3944 6.91722 19.3944Z" fill="#FF6F00"/>
<path d="M2.46063 15.8076C2.13396 15.808 1.80649 15.8235 1.48061 15.8046C1.0765 15.7816 0.696812 15.6014 0.420915 15.3017C0.145019 15.002 -0.00573467 14.6059 0.000166959 14.1963C0.00292186 13.7947 0.157118 13.4094 0.431231 13.1191C0.705344 12.8288 1.07867 12.6554 1.47488 12.6344C2.12675 12.6054 2.78236 12.6058 3.43487 12.634C3.83961 12.654 4.2207 12.833 4.49715 13.1328C4.7736 13.4327 4.92363 13.8299 4.91536 14.2399C4.91024 14.6409 4.75538 15.0251 4.4819 15.3152C4.20842 15.6054 3.83658 15.7801 3.44107 15.8042C3.11519 15.8244 2.78788 15.8076 2.46063 15.8076Z" fill="#FF6F00"/>
</svg>
